HIERARCHY
ROOT root
{
	OFFSET 0.000000 0.000000 0.000000
	CHANNELS 6 Xposition Yposition Zposition Zrotation Yrotation Xrotation
	JOINT lhip
	{
		OFFSET 0.058581 -0.082280 -0.017664
		CHANNELS 3 Zrotation Yrotation Xrotation
		JOINT lknee
		{
			OFFSET 0.043451 -0.386469 0.008037
			CHANNELS 3 Zrotation Yrotation Xrotation
			JOINT lankle
			{
				OFFSET -0.014790 -0.426874 -0.037428
				CHANNELS 3 Zrotation Yrotation Xrotation
				JOINT ltoe
				{
					OFFSET 0.041054 -0.060286 0.122042
					CHANNELS 3 Zrotation Yrotation Xrotation
					End Site
					{
						OFFSET 0.000000 0.000000 0.000000
					}
				}
			}
		}
	}
	JOINT rhip
	{
		OFFSET -0.060310 -0.090513 -0.013543
		CHANNELS 3 Zrotation Yrotation Xrotation
		JOINT rknee
		{
			OFFSET -0.043257 -0.383688 -0.004843
			CHANNELS 3 Zrotation Yrotation Xrotation
			JOINT rankle
			{
				OFFSET 0.019056 -0.420046 -0.034562
				CHANNELS 3 Zrotation Yrotation Xrotation
				JOINT rtoe
				{
					OFFSET -0.034840 -0.062106 0.130323
					CHANNELS 3 Zrotation Yrotation Xrotation
					End Site
					{
						OFFSET 0.000000 0.000000 0.000000
					}
				}
			}
		}
	}
	JOINT lowerback
	{
		OFFSET 0.004439 0.124404 -0.038385
		CHANNELS 3 Zrotation Yrotation Xrotation
		JOINT upperback
		{
			OFFSET 0.004488 0.137956 0.026820
			CHANNELS 3 Zrotation Yrotation Xrotation
			JOINT chest
			{
				OFFSET -0.002265 0.056032 0.002855
				CHANNELS 3 Zrotation Yrotation Xrotation
				JOINT lowerneck
				{
					OFFSET -0.013390 0.211636 -0.033468
					CHANNELS 3 Zrotation Yrotation Xrotation
					JOINT upperneck
					{
						OFFSET 0.010113 0.088937 0.050410
						CHANNELS 3 Zrotation Yrotation Xrotation
						End Site
						{
							OFFSET 0.000000 0.000000 0.000000
						}
					}
				}
				JOINT lclavicle
				{
					OFFSET 0.071702 0.114000 -0.018898
					CHANNELS 3 Zrotation Yrotation Xrotation
					JOINT lshoulder
					{
						OFFSET 0.122921 0.045205 -0.019046
						CHANNELS 3 Zrotation Yrotation Xrotation
						JOINT lelbow
						{
							OFFSET 0.255332 -0.015649 -0.022946
							CHANNELS 3 Zrotation Yrotation Xrotation
							JOINT lwrist
							{
								OFFSET 0.265709 0.012698 -0.007375
								CHANNELS 3 Zrotation Yrotation Xrotation
								End Site
								{
									OFFSET 0.000000 0.000000 0.000000
								}
							}
						}
					}
				}
				JOINT rclavicle
				{
					OFFSET -0.082954 0.112472 -0.023707
					CHANNELS 3 Zrotation Yrotation Xrotation
					JOINT rshoulder
					{
						OFFSET -0.113228 0.046853 -0.008472
						CHANNELS 3 Zrotation Yrotation Xrotation
						JOINT relbow
						{
							OFFSET -0.260127 -0.014369 -0.031269
							CHANNELS 3 Zrotation Yrotation Xrotation
							JOINT rwrist
							{
								OFFSET -0.269108 0.006794 -0.006027
								CHANNELS 3 Zrotation Yrotation Xrotation
								End Site
								{
									OFFSET 0.000000 0.000000 0.000000
								}
							}
						}
					}
				}
			}
		}
	}
}
MOTION
Frames: 9
Frame Time: 0.033333
-0.746412 0.244825 1.002154 90.194326 0.159954 86.572716 5.692858 3.102002 1.651523 -4.924192 1.653792 5.744106 -0.132178 9.637569 -7.243713 0.000000 -0.000000 0.000000 -3.571082 -4.185993 1.617639 5.711250 -3.883570 4.774740 0.910738 -6.919008 -5.786348 0.000000 -0.000000 0.000000 -0.972546 0.892253 4.069959 1.501516 -4.270290 6.793016 0.476468 -2.480130 -0.196673 3.124986 1.801546 -3.117353 3.919292 -3.555607 2.026640 -23.850242 -3.803565 2.287828 -58.614857 -12.800116 10.176528 7.050361 -16.729135 -1.078587 -3.252077 -6.351255 -1.893285 24.989427 6.436133 3.196709 57.165520 10.171439 12.919539 -10.499299 17.313428 -4.049059 2.622082 3.423494 -2.072663 
-0.745272 0.247245 1.002122 90.262705 0.221524 86.683679 5.600555 3.048249 1.751752 -4.972548 1.538485 5.450133 -0.015667 9.734211 -7.265376 0.000000 -0.000000 0.000000 -3.601685 -4.101227 1.611559 5.621683 -3.803369 4.686757 1.373326 -7.229177 -5.800420 0.000000 -0.000000 0.000000 -1.036854 0.937667 3.923111 1.449405 -4.161224 6.701176 0.567949 -2.461554 -0.088239 3.201147 1.951022 -3.387953 3.920994 -3.493077 2.020338 -23.541071 -3.636515 2.256787 -58.249499 -12.674742 9.952365 7.022357 -16.997333 -1.327712 -3.151425 -6.386590 -2.185607 25.119381 6.468650 3.201856 57.587113 10.349763 13.143852 -10.367102 17.431914 -4.038568 2.632366 3.454493 -1.906422 
-0.744193 0.249619 1.002057 90.359750 0.299006 86.775373 5.523966 3.005581 1.793966 -4.973682 1.509131 5.258487 0.025371 9.722521 -7.272885 0.000000 -0.000000 0.000000 -3.627825 -4.159141 1.609477 5.532261 -3.857170 4.629813 1.472720 -7.261203 -5.800543 0.000000 -0.000000 0.000000 -1.097497 0.999597 3.838812 1.464268 -4.120855 6.667668 0.634272 -2.434091 -0.096030 3.295883 2.139680 -3.513127 3.951469 -3.456979 1.819150 -23.361441 -3.514704 2.197234 -57.979505 -12.491522 9.775291 6.990960 -17.187277 -1.549422 -3.108343 -6.463334 -2.370964 25.244502 6.517694 3.183897 58.023639 10.460490 13.326967 -10.247119 17.683777 -3.881274 2.594069 3.507569 -1.834967 
-0.742964 0.252491 1.001999 90.447507 0.384809 86.866810 5.453054 2.968569 1.825776 -5.023978 1.485392 5.127990 0.091378 9.698539 -7.332294 0.000000 -0.000000 0.000000 -3.688803 -4.168612 1.636331 5.467640 -3.925153 4.557817 1.558774 -7.312187 -5.808662 0.000000 -0.000000 0.000000 -1.188443 1.077941 3.775586 1.481690 -4.050890 6.641409 0.721421 -2.399063 -0.107251 3.441933 2.317591 -3.693384 4.046268 -3.455085 1.600514 -23.249365 -3.402767 2.174046 -57.884184 -12.307362 9.628784 6.998747 -17.280257 -1.614710 -3.159919 -6.488790 -2.434952 25.427694 6.591525 3.205889 58.536658 10.595442 13.567801 -10.111395 18.171937 -3.620148 2.571119 3.609806 -1.793632 
-0.742233 0.254192 1.001960 90.453536 0.426385 86.914472 5.405794 2.965886 1.854753 -5.062106 1.474846 5.061828 0.131946 9.701404 -7.373719 0.000000 -0.000000 0.000000 -3.741419 -4.162733 1.641046 5.437123 -3.948249 4.540664 1.604381 -7.322941 -5.818648 0.000000 -0.000000 0.000000 -1.225359 1.121931 3.745001 1.479601 -3.994358 6.622978 0.756314 -2.373171 -0.102841 3.526667 2.346135 -3.790188 4.119045 -3.488301 1.523709 -23.241511 -3.352443 2.193528 -57.948122 -12.198122 9.585485 7.032266 -17.279908 -1.613510 -3.216891 -6.491673 -2.475931 25.525736 6.644238 3.223253 58.821375 10.680659 13.733600 -9.982320 18.519468 -3.393212 2.594938 3.657838 -1.798191 
-0.741297 0.256404 1.001876 90.425533 0.491088 86.968591 5.343295 2.962080 1.879963 -5.091214 1.487084 5.015734 0.204118 9.728988 -7.428196 0.000000 -0.000000 0.000000 -3.788098 -4.158067 1.631728 5.378136 -3.962045 4.555916 1.670546 -7.326038 -5.850016 0.000000 -0.000000 0.000000 -1.227563 1.178349 3.716776 1.473908 -3.932350 6.599321 0.777495 -2.330611 -0.102490 3.604066 2.328648 -3.876312 4.185435 -3.537700 1.446565 -23.277193 -3.304421 2.237395 -58.178989 -12.043398 9.580752 7.050083 -17.188215 -1.570988 -3.406732 -6.432767 -2.557544 25.614679 6.746009 3.254981 59.177875 10.788747 13.976272 -9.794583 19.003271 -3.039632 2.699661 3.709020 -1.786239 
-0.740336 0.258536 1.001793 90.353836 0.554568 87.010370 5.273915 2.972924 1.915734 -5.106366 1.527578 4.987767 0.275472 9.767249 -7.494164 0.000000 -0.000000 0.000000 -3.828189 -4.170855 1.617383 5.309103 -3.940630 4.605407 1.721057 -7.308771 -5.897658 0.000000 -0.000000 0.000000 -1.191509 1.233250 3.663988 1.462181 -3.871884 6.608846 0.765839 -2.283344 -0.092939 3.670322 2.263179 -3.883164 4.215595 -3.601422 1.360875 -23.365206 -3.238786 2.268755 -58.538900 -11.894696 9.624480 7.021801 -17.086172 -1.447234 -3.606651 -6.341309 -2.571518 25.664776 6.836178 3.291072 59.489905 10.889077 14.227465 -9.603908 19.532430 -2.635835 2.773134 3.759414 -1.680762 
-0.739504 0.260627 1.001701 90.291587 0.599495 87.048264 5.193030 2.950050 1.920293 -5.130618 1.598878 5.009096 0.343201 9.788919 -7.569225 0.000000 -0.000000 0.000000 -3.897498 -4.172477 1.591258 5.256907 -3.931404 4.672558 1.769316 -7.287711 -5.934265 0.000000 -0.000000 0.000000 -1.135141 1.275585 3.613574 1.439582 -3.821349 6.634700 0.736145 -2.255944 -0.061250 3.699347 2.226548 -3.920092 4.220134 -3.604685 1.258202 -23.488303 -3.178305 2.328438 -59.010911 -11.757814 9.720336 6.986585 -17.092694 -1.201441 -3.736242 -6.343035 -2.519871 25.682721 6.884217 3.322699 59.723715 10.990804 14.431178 -9.438908 20.150234 -2.264594 2.830924 3.848724 -1.631065 
-0.738717 0.262595 1.001630 90.217364 0.641365 87.097199 5.130852 2.944709 1.929801 -5.179300 1.667500 5.001970 0.392266 9.797342 -7.628555 0.000000 -0.000000 0.000000 -3.966778 -4.183132 1.527307 5.202097 -3.923210 4.775619 1.835091 -7.237358 -5.980667 0.000000 -0.000000 0.000000 -1.051256 1.299831 3.575251 1.418480 -3.777312 6.626654 0.686727 -2.244689 -0.012333 3.708418 2.167832 -3.923195 4.198121 -3.620961 1.174533 -23.647721 -3.104581 2.394413 -59.560023 -11.583716 9.906185 6.894150 -17.212577 -0.856084 -3.756314 -6.313055 -2.473606 25.688363 6.864714 3.310311 59.865737 11.051497 14.604701 -9.289138 20.787480 -1.943991 2.826004 3.915478 -1.629408 
